<svg width="13" height="13" viewBox="0 0 13 13" fill="none" xmlns="http://www.w3.org/2000/svg">
<path d="M4.87883 2.04146C4.71452 1.63068 4.31667 1.36133 3.87425 1.36133H2.38586C1.81976 1.36133 1.36084 1.82027 1.36084 2.38637C1.36084 7.19825 5.26175 11.099 10.0736 11.099C10.6397 11.099 11.0985 10.6401 11.0985 10.074L11.0985 8.58564C11.0985 8.14322 10.8291 7.7454 10.4183 7.58109L8.99257 7.01075C8.62358 6.86316 8.20349 6.92968 7.89819 7.1841L7.52972 7.49106C7.09982 7.84931 6.46771 7.82066 6.07202 7.42497L5.03486 6.38788C4.63916 5.99219 4.61065 5.36003 4.96889 4.93013L5.27584 4.56177C5.53026 4.25647 5.59675 3.83629 5.44916 3.4673L4.87883 2.04146Z" stroke="white" stroke-width="2" stroke-linecap="round" stroke-linejoin="round"/>
</svg>
