<svg width="15" height="14" viewBox="0 0 15 14" fill="none" xmlns="http://www.w3.org/2000/svg">
<path d="M11.868 8.5863C11.3922 8.48997 11.0158 8.69788 10.6826 8.87945C10.3412 9.06656 9.69223 9.56207 9.32023 9.43525C7.4156 8.69718 5.62426 7.12819 4.84882 5.32841C4.71215 4.97081 5.23618 4.35611 5.43351 4.03108C5.62499 3.71645 5.84133 3.35885 5.74266 2.90769C5.6535 2.50228 4.5002 1.12109 4.09238 0.743392C3.82342 0.493904 3.54789 0.356687 3.26505 0.33451C2.20164 0.291543 1.01399 1.62699 0.805699 1.94647C0.283865 2.62771 0.286788 3.53418 0.81447 4.63331C2.08617 7.58558 6.89596 12.041 10.0445 13.2829C10.6255 13.5386 11.1569 13.6668 11.6341 13.6668C12.1012 13.6668 12.517 13.5442 12.8744 13.3009C13.1441 13.1547 14.6212 11.9814 14.5824 10.9537C14.559 10.6917 14.4136 10.4297 14.1519 10.1761C13.7536 9.78869 12.2956 8.67085 11.868 8.5863Z" fill="#FF3737"/>
</svg>
