<svg width="15" height="14" viewBox="0 0 15 14" fill="none" xmlns="http://www.w3.org/2000/svg">
<path d="M11.868 8.58648C11.3922 8.49015 11.0158 8.69806 10.6826 8.87963C10.3412 9.06675 9.69223 9.56225 9.32023 9.43543C7.4156 8.69737 5.62426 7.12837 4.84882 5.3286C4.71215 4.971 5.23618 4.35629 5.43351 4.03126C5.62499 3.71663 5.84133 3.35903 5.74266 2.90788C5.6535 2.50246 4.5002 1.12127 4.09238 0.743575C3.82342 0.494088 3.54789 0.35687 3.26505 0.334693C2.20164 0.291726 1.01399 1.62718 0.805699 1.94666C0.283865 2.6279 0.286788 3.53437 0.81447 4.6335C2.08617 7.58576 6.89596 12.0412 10.0445 13.2831C10.6255 13.5388 11.1569 13.667 11.6341 13.667C12.1012 13.667 12.517 13.5443 12.8744 13.3011C13.1441 13.1549 14.6212 11.9816 14.5824 10.9538C14.559 10.6919 14.4136 10.4299 14.1519 10.1763C13.7536 9.78887 12.2956 8.67103 11.868 8.58648Z" fill="#FF3737"/>
</svg>
