<svg width="19" height="21" viewBox="0 0 19 21" fill="none" xmlns="http://www.w3.org/2000/svg">
<path d="M1.68064 20.587C1.02832 20.587 0.499512 20.0614 0.499512 19.413V1.8044C0.499512 1.15607 1.02832 0.63046 1.68064 0.63046H9.21626C9.66528 0.627383 10.0772 0.877592 10.2793 1.27614L11.1297 2.97831H17.0354C17.6877 2.97831 18.2165 3.50389 18.2165 4.15222V13.5435C18.2165 14.1918 17.6877 14.7174 17.0354 14.7174H10.6691C10.2243 14.7161 9.81799 14.4665 9.61785 14.0718L8.76743 12.3696H2.86177V19.413C2.86177 20.0614 2.33296 20.587 1.68064 20.587ZM2.86177 2.97831V10.0218H9.94856L11.1297 12.3696H15.8542V5.32613H9.94856L8.76743 2.97831H2.86177Z" fill="#E22A2A"/>
</svg>
